Coordinates
version=1
nRows=6
nColumns=63
inDegrees=yes

Units are S.I. units (second, meters, Newtons, ...)
If the header above contains a line with 'inDegrees', this indicates whether rotational values are in degrees (yes) or radians (no).

endheader
time	pelvis_tilt	pelvis_list	pelvis_rotation	pelvis_tx	pelvis_ty	pelvis_tz	hip_flexion_r	hip_adduction_r	hip_rotation_r	knee_angle_r	knee_angle_r_beta	ankle_angle_r	subtalar_angle_r	mtp_angle_r	hip_flexion_l	hip_adduction_l	hip_rotation_l	knee_angle_l	knee_angle_l_beta	ankle_angle_l	subtalar_angle_l	mtp_angle_l	L5_S1_Flex_Ext	L5_S1_Lat_Bending	L5_S1_axial_rotation	L4_L5_Flex_Ext	L4_L5_Lat_Bending	L4_L5_axial_rotation	L3_L4_Flex_Ext	L3_L4_Lat_Bending	L3_L4_axial_rotation	L2_L3_Flex_Ext	L2_L3_Lat_Bending	L2_L3_axial_rotation	L1_L2_Flex_Ext	L1_L2_Lat_Bending	L1_L2_axial_rotation	L1_T12_Flex_Ext	L1_T12_Lat_Bending	L1_T12_axial_rotation	Abs_r3	Abs_r2	Abs_r1	Abs_t1	Abs_t2	neck_flexion	neck_bending	neck_rotation	arm_flex_r	arm_add_r	arm_rot_r	elbow_flex_r	pro_sup_r	wrist_flex_r	wrist_dev_r	arm_flex_l	arm_add_l	arm_rot_l	elbow_flex_l	pro_sup_l	wrist_flex_l	wrist_dev_l
      1.46666667	     -4.35345259	     -3.98285529	     95.06185469	      0.28195533	      0.45822773	      0.86324068	      1.25652243	     -3.42829120	      0.49222125	      8.79903173	      0.15357207	     32.25618077	     -2.74678794	      0.00000000	      0.51133647	      4.69986187	      5.33850293	      3.57360668	      0.06237120	     29.35734833	     -1.42234999	      0.00000000	     -0.07703705	     -1.21826393	     -1.08991500	     -0.14306550	     -1.62029103	     -1.15803469	     -0.12656416	     -2.96208693	     -1.15803469	     -0.08804564	     -2.96208693	     -0.95367563	     -0.07153660	     -2.48428381	     -0.88555594	     -0.04401897	     -1.88709083	     -0.81743625	     -0.55026791	    -13.78124526	     -6.06178026	      0.00000000	      0.00000000	     27.83593634	     18.22998106	    -23.70113389	     13.63172526	    -16.52335606	    -59.93464464	    115.16100771	     86.34071457	    -10.84003123	     22.67819908	      3.43101292	    -24.00218619	    133.54990233	      1.85825909	      3.85013509	     -2.30206617	     -7.44630272
      1.48333333	     -4.35318990	     -3.47932689	     94.52173001	      0.28332400	      0.45918854	      0.86202441	      0.55235536	     -3.22520136	      2.30297871	      8.50597814	      0.14845732	     31.43214365	     -4.74815899	      0.00000000	     -0.25540141	      4.58881252	      4.58544314	      3.27149448	      0.05709835	     29.35219975	     -0.97426579	      0.00000000	     -0.15876669	     -1.18177910	     -1.15110815	     -0.29484561	     -1.57176621	     -1.22305241	     -0.26083779	     -2.87337771	     -1.22305241	     -0.18145445	     -2.87337771	     -1.00721963	     -0.14743075	     -2.40988395	     -0.93527537	     -0.09071929	     -1.83057583	     -0.86333111	     -1.13405457	    -13.36852158	     -6.40211819	      0.00000000	      0.00000000	     27.82908874	     18.69666706	    -22.14424935	     17.41451112	    -17.69803640	    -60.60562113	    119.35981128	     81.32360438	    -14.98370441	     20.47573212	      3.53150155	    -23.49719677	    142.58964564	      1.24940461	      4.38241206	     -4.56503609	     -7.42700892
      1.50000000	     -4.34506483	     -3.09659759	     94.14807681	      0.28430825	      0.46019264	      0.86044996	      0.02397121	     -3.12415661	      2.90381168	      8.46114299	      0.14767480	     30.82054286	     -5.45821136	      0.00000000	     -0.89438378	      4.51533484	      4.14571877	      3.00780865	      0.05249616	     29.23603626	     -0.86879721	      0.00000000	     -0.20426881	     -1.15163023	     -1.27993123	     -0.37934760	     -1.53166821	     -1.35992693	     -0.33559322	     -2.80007375	     -1.35992693	     -0.23345882	     -2.80007375	     -1.11993982	     -0.18968401	     -2.34840437	     -1.03994412	     -0.11671920	     -1.78387523	     -0.95994842	     -1.45907165	    -13.02747151	     -7.11859351	      0.00000000	      0.00000000	     27.82239774	     19.15396973	    -21.17328971	     21.87602305	    -18.61232406	    -60.36549501	    122.83431646	     78.27569775	    -19.71020875	     16.08849637	      3.15192040	    -23.04864259	    143.53042007	      1.13337733	      4.55353923	     -5.85570919	     -8.06462787
      1.51666667	     -4.28021170	     -2.68142789	     93.74276238	      0.28522599	      0.46132964	      0.85835029	     -0.56845595	     -2.99011031	      3.28659350	      8.41244008	      0.14682478	     30.18428678	     -5.86323767	      0.00000000	     -1.63417165	      4.39976789	      3.76308412	      2.65985680	      0.04642326	     29.05620683	     -0.87906199	      0.00000000	     -0.22622340	     -1.11834842	     -1.40848578	     -0.42011948	     -1.48740339	     -1.49651614	     -0.37166243	     -2.71915234	     -1.49651614	     -0.25855073	     -2.71915234	     -1.23242506	     -0.21007105	     -2.28053609	     -1.14439470	     -0.12926405	     -1.73232169	     -1.05636433	     -1.61589114	    -12.65098094	     -7.83357535	      0.00000000	      0.00000000	     27.78197848	     19.74113835	    -20.49871512	     26.40531220	    -19.65686304	    -59.26925241	    125.64895235	     77.74840493	    -22.85000355	     10.21953693	      2.53348892	    -22.57899588	    140.12101634	      1.27799307	      3.44970247	     -6.26812888	     -9.43971344
      1.53333333	     -4.16049729	     -2.17910817	     93.34922540	      0.28588533	      0.46268364	      0.85574099	     -1.35331228	     -2.81784098	      3.55423111	      8.19542354	      0.14303712	     29.47329867	     -6.08748089	      0.00000000	     -2.52114787	      4.24682493	      3.54429442	      2.27132563	      0.03964211	     28.86154418	     -1.01126256	      0.00000000	     -0.23544638	     -1.08140935	     -1.50164196	     -0.43724747	     -1.43827443	     -1.59549459	     -0.38681485	     -2.62933869	     -1.59549459	     -0.26909166	     -2.62933869	     -1.31393672	     -0.21863551	     -2.20520995	     -1.22008410	     -0.13453406	     -1.67510308	     -1.12623147	     -1.68176993	    -12.23311884	     -8.35168211	      0.00000000	      0.00000000	     27.69940189	     20.13245625	    -20.49147590	     30.32400992	    -21.15984752	    -57.78404527	    128.20221531	     78.52578689	    -23.75740925	      4.67186690	      2.01134986	    -22.05250714	    133.79426472	      1.73266672	      2.53262940	     -5.95435181	    -11.34652507
      1.55000000	     -3.96114194	     -1.62452104	     93.01384891	      0.28639310	      0.46419403	      0.85296939	     -2.29170754	     -2.57621306	      3.73878755	      7.75927122	      0.13542483	     28.77871273	     -6.11075212	      0.00000000	     -3.46441298	      4.01670176	      3.50691761	      1.92543209	      0.03360513	     28.63785234	     -1.25072636	      0.00000000	     -0.23218439	     -1.04037797	     -1.57611077	     -0.43118963	     -1.38370270	     -1.67461769	     -0.38145573	     -2.52957500	     -1.67461769	     -0.26536354	     -2.52957500	     -1.37909692	     -0.21560642	     -2.12153876	     -1.28059000	     -0.13267016	     -1.61154548	     -1.18208308	     -1.65846986	    -11.76896369	     -8.76585527	      0.00000000	      0.00000000	     27.56952058	     20.46320060	    -20.97382663	     33.45182063	    -23.05985165	    -56.10068427	    130.78450371	     79.58104663	    -22.79297078	      0.53963087	      1.76772750	    -21.57179356	    125.96422481	      2.70783532	      2.21809798	     -5.19863775	    -13.11960322
